<svg width="57" height="62" viewBox="0 0 57 62" fill="none" xmlns="http://www.w3.org/2000/svg">
<path d="M41.4069 32.345C41.0611 32.345 40.4475 32.2813 40.1781 32.0658C39.9055 31.8477 39.7231 31.5407 39.3961 31.3675C39.047 31.1827 38.6672 30.8369 38.2649 30.8369C37.8041 30.8369 37.3433 30.8369 36.8825 30.8369C36.1757 30.8369 35.0835 31.0444 34.5225 31.4932C34.0042 31.9079 33.5186 32.7655 32.8607 32.8478C32.1416 32.9376 33.1055 32.9583 33.3634 32.9734C33.8206 33.0003 34.1236 33.5032 34.4946 33.6996C34.6419 33.7776 34.7877 33.928 34.9414 33.9719C35.1555 34.0331 35.4191 33.909 35.6257 34.0068C35.9982 34.1833 36.6156 34.5842 37.0081 34.6073C37.4654 34.6342 37.9325 34.6073 38.3906 34.6073C38.8543 34.6073 39.3089 34.2848 39.7731 34.2302C40.5076 34.1438 40.9822 33.2248 41.6583 33.2248" stroke="black" stroke-linecap="round"/>
<path d="M42.1613 27.9463C41.1583 27.6808 40.351 27.2572 39.3405 27.0735C38.7798 26.9715 38.066 26.792 37.5111 27.0386C37.0962 27.223 36.2827 27.5692 35.8145 27.5692C35.5286 27.5692 34.4686 27.9986 34.3691 28.1976" stroke="black" stroke-linecap="round"/>
<path d="M54.3512 27.0665C53.153 27.0665 52.2365 26.6894 51.0835 26.6894C50.6785 26.6894 50.218 26.6193 49.9245 26.9129C49.655 27.1823 48.9768 27.1325 48.8213 27.4435" stroke="black" stroke-linecap="round"/>
<path d="M48.4443 31.7166C48.4806 31.4267 49.8508 30.6747 50.2039 30.4878C50.7994 30.1725 51.0326 30.0828 51.7748 30.0828C52.9521 30.0828 53.8013 31.3396 54.9797 31.3396" stroke="black" stroke-linecap="round"/>
<path d="M48.9478 31.3396C48.9478 32.6906 51.0554 33.0991 52.0897 33.0991C52.4476 33.0991 52.8348 33.2108 53.158 33.2108C53.5003 33.2108 53.8452 32.8689 54.2263 32.8477C55.0837 32.8001 55.1807 32.3214 55.4831 31.7166" stroke="black" stroke-linecap="round"/>
<path d="M49.1987 31.3396C49.676 31.7638 50.5513 31.9544 51.1468 32.0867C51.7991 32.2316 51.6333 30.3342 51.461 30.3342C51.356 30.3342 51.6785 31.7891 51.0281 31.975C50.704 32.0676 50.5535 32.304 50.1413 32.2124C49.9329 32.1661 49.8271 31.4717 49.8271 31.2768C49.8271 31.0166 50.0939 30.3384 50.3578 30.8369C50.5457 31.1918 50.4573 31.5006 50.6091 31.8423C50.6677 31.974 50.7466 32.8027 50.8326 32.6522C51.0396 32.29 51.4388 32.1587 51.6495 31.7795C51.7541 31.5911 51.7123 30.9311 51.7123 30.9626C51.7123 31.3519 51.7664 31.5927 51.4889 31.8702C51.202 32.1571 50.8342 32.0937 50.4555 32.0937C49.8987 32.0937 49.9892 31.9514 49.8271 31.4653" stroke="black" stroke-linecap="round"/>
<path d="M36.3793 31.0882C36.7208 31.4725 38.0172 33.9121 36.882 33.9789C36.5957 33.9957 36.2885 33.9957 36.0022 33.9789C35.7768 33.9656 35.6283 33.7275 35.3738 33.7275C34.7959 33.7275 34.4941 33.4155 34.4941 32.8477C34.4941 32.4851 34.302 31.5061 34.9968 31.4653C35.3027 31.4473 35.4822 31.591 35.7509 31.591C36.0517 31.591 36.3129 31.4653 36.6306 31.4653C37.0539 31.4653 36.9032 32.612 36.882 32.9734C36.8692 33.1903 36.4122 33.3079 36.2536 33.3784C35.723 33.6142 35.7509 33.3305 35.7509 32.8477" stroke="black" stroke-linecap="round"/>
<path d="M54.8546 30.3342C53.6299 30.1981 52.6444 28.826 51.4612 28.826C50.9835 28.826 50.4242 28.7134 50.0508 29.0494C49.6498 29.4104 49.1421 29.6599 48.6963 29.9571" stroke="black" stroke-linecap="round"/>
<path d="M40.9042 30.5855C40.2265 30.5855 39.6136 30.3236 39.0889 29.8943C38.8302 29.6827 38.4768 29.1994 38.2021 29.0774C37.6467 28.8305 37.5445 29.0621 37.078 29.3287C36.7587 29.5112 36.4315 29.5058 36.0656 29.5871C35.7311 29.6614 35.469 29.7057 35.2207 29.9292C35.0602 30.0737 34.5695 30.4348 34.3689 30.4598C33.7704 30.5347 33.239 31.2139 32.6094 31.2139" stroke="black" stroke-linecap="round"/>
<path d="M41.0299 34.733C40.3323 34.733 39.7793 35.667 39.2145 35.9898C38.4575 36.4223 38.033 36.8695 37.1338 36.8695" stroke="black" stroke-linecap="round"/>
<path d="M49.8267 34.4816C50.7019 34.5691 51.2666 35.3613 52.2146 35.3613C52.6959 35.3613 54.3149 35.5956 54.4768 35.11" stroke="black" stroke-linecap="round"/>
<path d="M47.439 28.449C47.439 29.3078 47.439 30.1666 47.439 31.0254C47.439 31.3452 47.3416 31.8681 47.5018 32.1565C47.6117 32.3544 47.8038 32.7659 47.816 32.9734C47.8518 33.5816 48.2714 34.0958 48.4374 34.6771C48.5548 35.0878 49.0399 35.9634 49.387 36.2411C49.5045 36.3351 49.5731 36.538 49.6314 36.674C49.6881 36.8063 49.4935 36.5298 49.4568 36.695C49.3694 37.0886 49.4499 37.5928 49.4499 38.0006C49.4499 38.6888 49.6926 39.1874 49.8339 39.823C49.9714 40.4418 50.172 41.4656 49.1985 41.5197C48.6609 41.5495 48.1931 42.2711 48.1931 42.7765" stroke="black" stroke-linecap="round"/>
<path d="M41.4067 48.6834C43.0921 48.6834 44.5589 48.432 46.2454 48.432C47.0116 48.432 47.5975 48.3779 48.2633 48.1877C49.0634 47.9591 49.5425 48.6834 50.2043 48.6834" stroke="black" stroke-linecap="round"/>
<path d="M41.6582 48.055C43.0705 48.055 44.1565 47.6586 45.3658 46.9867C45.7882 46.752 46.1528 47.0122 46.4061 47.3289C46.4783 47.4191 46.5125 47.7632 46.6295 47.7967C46.7762 47.8386 47.1651 47.8621 47.1881 47.678C47.2176 47.4419 47.6067 46.7982 47.8793 46.7982C48.3811 46.7982 48.6019 46.9239 49.0174 47.0426C49.6032 47.2099 49.8816 48.145 50.4558 48.432" stroke="black" stroke-linecap="round"/>
<path d="M41.9092 48.9348C42.7805 48.9348 43.6733 49.5259 44.5205 49.7866C45.1372 49.9763 45.9101 50.1916 46.5593 50.1916C46.7947 50.1916 47.4796 50.31 47.6625 50.1636C47.896 49.9768 48.3328 50.0799 48.5423 49.9123C49.0012 49.5451 50.1254 49.0604 50.7068 49.0604" stroke="black" stroke-linecap="round"/>
<path d="M22.8056 45.1644C22.8056 45.8248 21.9095 46.8574 21.3533 47.1752C20.5415 47.6392 19.388 47.4266 18.4697 47.4266C17.3104 47.4266 16.9857 46.8296 16.6752 45.8207C16.5136 45.2955 16.588 45.2175 16.1725 44.8851C15.8757 44.6476 15.5007 44.0333 15.1392 44.0333" stroke="black" stroke-linecap="round"/>
<path d="M20.7952 43.5305C19.7193 43.5305 19.731 42.3603 19.0356 41.8967" stroke="black" stroke-linecap="round"/>
<path d="M20.7954 43.6562C19.9029 43.6562 18.9821 43.859 18.1561 43.9076C17.6122 43.9396 17.7971 44.0648 17.3741 43.6842C17.2302 43.5547 16.849 43.2792 16.6479 43.2792" stroke="black" stroke-linecap="round"/>
<path d="M15.2651 44.6616C15.1616 45.5932 13.7341 46.4897 13.0029 46.896C11.757 47.5881 10.4764 48.2082 9.13471 48.6555C7.79849 49.1009 6.37248 50.1025 4.9035 49.4096C3.50855 48.7516 2.72683 47.4602 1.84529 46.2396C1.46342 45.7109 1.33497 44.9427 1.31464 44.3125C1.29236 43.6218 1.0016 42.9788 0.944585 42.2947C0.898756 41.7447 1.06328 41.1381 1.06328 40.7097C1.06328 38.402 1.16423 36.148 1.30766 33.8532C1.33348 33.44 1.34407 31.3951 1.78943 31.2837C1.87075 31.2634 1.69574 25.0254 1.84529 24.4272C1.99643 23.8227 2.26639 23.2219 2.54351 22.6677C2.61407 22.5266 3.0842 21.3038 3.19285 21.4668C3.20334 21.4825 3.19984 21.292 3.19984 21.2573C3.19984 20.7318 3.20581 20.2094 3.26268 19.6863C3.33261 19.043 3.42205 18.3661 3.67463 17.7662C4.30691 16.2645 4.94766 14.7307 5.71343 13.2417C6.71162 11.3008 8.74415 10.402 10.8942 8.96862C12.1733 8.11593 13.4071 7.38355 14.7903 6.73431C16.0779 6.12994 17.368 5.57591 18.7143 5.19124C19.136 5.07076 19.5589 4.80831 19.9432 4.56983C21.6663 3.50032 23.9206 3.9003 25.6965 3.06167C26.2944 2.77933 26.8606 2.56113 27.4281 2.20984C27.7114 2.03448 27.6876 2.24274 28.1542 2.11209C29.2974 1.79201 30.6635 1.55351 31.8548 1.55351C32.4884 1.55351 33.1472 1.23535 33.7959 1.18346C34.835 1.10032 35.9922 0.884603 37.0356 1.07872C38.3981 1.33221 39.7606 1.352 41.0294 1.98641C41.5009 2.22217 41.9524 2.45729 42.4119 2.71256C42.9518 3.01248 43.4214 3.56842 43.8572 4.00427C44.2981 4.44511 44.9084 4.62253 45.3305 5.04462C45.4119 5.1261 45.4783 5.86288 45.5818 6.07798C45.8668 6.66976 46.1745 7.25804 46.4965 7.83052C46.6796 8.15611 47.1877 8.59831 47.1877 8.96862C47.1877 9.89031 47.502 11.2378 46.5593 11.7615C45.7309 12.2218 45.1428 12.5963 44.1714 12.8088C43.2997 12.9995 42.3979 13.116 41.5042 13.116C39.5194 13.116 37.6024 12.4876 35.6252 12.4876C34.6291 12.4876 33.6329 12.4876 32.6368 12.4876C31.7605 12.4876 30.9634 13.072 30.1512 13.3674C29.8082 13.4921 29.4463 13.5396 29.0899 13.6188C28.6316 13.7206 28.352 14.0226 27.9587 14.2192C26.8255 14.7859 25.4311 14.9796 24.2512 15.504C23.7949 15.7068 23.7357 16.4029 23.4343 16.7608C22.8344 17.4731 23.0105 18.4162 22.743 19.2185C22.604 19.6355 22.8059 20.3909 22.8059 20.8384C22.8059 21.6452 22.7355 22.6098 22.9595 23.3939C23.277 24.5053 23.1386 26.0117 23.1829 27.1642C23.2503 28.9175 23.1541 31.1702 23.9091 32.8478C24.2319 33.5652 24.348 34.5319 24.7888 35.1379C24.9345 35.3383 25.2527 36.1605 25.3125 36.4296C25.4333 36.9733 24.7308 38.6768 24.1883 38.9781C23.1279 39.5673 21.9179 40.0821 20.8927 40.7656C20.0828 41.3055 19.8227 42.3994 18.7841 42.3994C18.4574 42.3994 17.7278 42.2644 17.4645 42.4692C17.1172 42.7394 16.7891 43.0991 16.3962 43.3071C16.0312 43.5003 15.648 43.7772 15.3279 44.0333C15.2453 44.0994 14.5336 44.6616 14.7624 44.6616" stroke="black" stroke-linecap="round"/>
<path d="M45.1766 12.8647C45.9703 12.8647 46.3355 13.0373 46.9082 13.5908C47.2538 13.9249 48.0461 14.233 48.2906 14.6242C48.8167 15.4659 49.7434 16.1514 50.3294 16.9842C50.8734 17.7572 51.3359 18.5054 51.8376 19.3023C52.4574 20.2867 51.9274 21.3931 52.5917 22.5141C53.2526 23.6295 53.7811 24.9315 54.3791 26.061C54.6285 26.532 54.9598 27.0824 54.9796 27.5971C55.0067 28.3022 54.9281 28.9915 55.1123 29.6359C55.2415 30.0883 55.5931 30.5649 55.7267 31.0324C55.8858 31.5894 55.4175 32.6953 55.9222 33.0991C56.1972 33.3191 55.985 34.8628 55.985 35.2985C55.985 36.0735 55.985 36.8486 55.985 37.6236C55.985 38.6028 55.8152 39.4716 55.7057 40.3606C55.5375 41.7279 55.608 43.1299 55.608 44.508C55.608 45.2593 55.3433 45.787 55.0075 46.4212C54.6917 47.0176 54.6509 47.8714 54.4769 48.5577C54.2438 49.4771 53.9061 50.4499 53.5273 51.3157C53.2285 51.9985 52.7611 52.6655 52.5987 53.3964C52.5572 53.583 52.5618 53.7455 52.4939 53.934C52.4139 54.1563 52.2352 54.0045 52.089 54.2342C51.6436 54.934 51.3893 55.7383 51.0207 56.4755C50.7279 57.0611 50.3391 57.585 50.0781 58.1722C49.8935 58.5874 49.0272 59.7292 48.5141 59.7292C47.0857 59.7292 45.7548 61 44.234 61C43.3139 61 42.4186 60.9814 41.5179 60.8813C39.1367 60.6167 36.617 59.8367 34.5916 58.4864C34.2767 58.2765 33.9392 58.0916 33.5861 57.9558C32.9368 57.706 32.4636 57.1409 31.8545 56.8246C30.9271 56.3431 29.6055 56.0713 28.8382 55.3444C28.108 54.6527 27.1831 54.3177 26.4503 53.5849C25.5906 52.7252 24.8637 51.747 23.9996 50.8828C23.2366 50.1198 22.0875 49.1871 20.9832 48.9417C20.1234 48.7507 19.4035 48.1964 18.8537 47.4894C18.6454 47.2217 17.6546 46.543 17.4014 47.0496" stroke="black" stroke-linecap="round"/>
</svg>
